<?xml version="1.0" encoding="utf-8"?>
<!-- Generator: Adobe Illustrator 17.1.0, SVG Export Plug-In . SVG Version: 6.00 Build 0)  -->
<!DOCTYPE svg PUBLIC "-//W3C//DTD SVG 1.1//EN" "http://www.w3.org/Graphics/SVG/1.1/DTD/svg11.dtd">
<svg version="1.1" id="Layer_1" xmlns="http://www.w3.org/2000/svg" xmlns:xlink="http://www.w3.org/1999/xlink" x="0px" y="0px"
	 viewBox="680 528.6 560 56" style="enable-background:new 680 528.6 560 56;" xml:space="preserve">
<style type="text/css">
	.st0{fill:url(#SVGID_1_);}
	.st1{fill:#131313;}
	.st2{fill:url(#SVGID_2_);}
	.st3{fill:none;stroke:#D1D1D1;stroke-width:2;stroke-miterlimit:10;}
	.st4{fill:url(#SVGID_3_);}
	.st5{fill:url(#SVGID_4_);}
	.st6{fill:#4F4F4F;}
	.st7{fill:#303030;}
	.st8{fill:url(#SVGID_5_);}
	.st9{fill:url(#SVGID_6_);}
	.st10{fill:url(#SVGID_7_);}
	.st11{fill:url(#SVGID_8_);}
</style>
<g>
	
		<linearGradient id="SVGID_1_" gradientUnits="userSpaceOnUse" x1="353.167" y1="36.4722" x2="353.167" y2="37.5127" gradientTransform="matrix(3.4286 0 0 3.4286 0 430.255)">
		<stop  offset="0" style="stop-color:#FFFFFF"/>
		<stop  offset="1" style="stop-color:#000000"/>
	</linearGradient>
	<path class="st0" d="M1230.3,558.1h-38.8c-0.3,0-0.7,0.3-0.7,0.7v1.5h40.2v-1.5C1231,558.5,1230.6,558.1,1230.3,558.1z"/>
	<rect x="1190.8" y="560.3" class="st1" width="40.2" height="18.7"/>
	
		<linearGradient id="SVGID_2_" gradientUnits="userSpaceOnUse" x1="353.1582" y1="42.0104" x2="353.1582" y2="43.7561" gradientTransform="matrix(3.4286 0 0 3.4286 0 430.255)">
		<stop  offset="0" style="stop-color:#FFFFFF"/>
		<stop  offset="1" style="stop-color:#000000"/>
	</linearGradient>
	<path class="st2" d="M1190.8,579v3.7h9.6c0.7,0,1.2-0.5,1.2-1.2l0,0c0-0.5,0.4-0.9,0.9-0.9l0,0c0.3,0,0.8,0.2,1,0.4l1.3,1.3
		c0.3,0.3,0.7,0.4,1,0.4h9.9c0.4,0,0.8-0.2,1-0.4l1.3-1.3c0.3-0.3,0.6-0.4,1-0.4l0,0c0.5,0,0.9,0.4,0.9,0.9l0,0
		c0,0.7,0.5,1.2,1.2,1.2h9.6V579H1190.8z"/>
	<path class="st3" d="M1220.8,581.7c0,0,0,0-1.4,0c-1.4,0-4.8-22.1-4.8-30.2c0-8.1,6-6.2,6-10.9c0-4.8-8.4-4.8-8.4-4.8h-2.8
		c0,0-8.4,0-8.4,4.8c0,4.8,6,2.8,6,10.9c0,8.2-3.4,30.2-4.8,30.2c-1.4,0-1.4,0-1.4,0"/>
	
		<linearGradient id="SVGID_3_" gradientUnits="userSpaceOnUse" x1="357.3553" y1="42.0104" x2="357.3553" y2="43.7561" gradientTransform="matrix(3.4286 0 0 3.4286 0 430.255)">
		<stop  offset="0" style="stop-color:#FFFFFF"/>
		<stop  offset="1" style="stop-color:#000000"/>
	</linearGradient>
	<path class="st4" d="M1219.5,580.7c0.3,0.2,0.6,0.4,0.6,0.9l0,0c0,0.7,0.5,1.2,1.2,1.2h9.6V579h-11.3
		C1219.6,579,1219.4,580.6,1219.5,580.7z"/>
	
		<linearGradient id="SVGID_4_" gradientUnits="userSpaceOnUse" x1="348.9352" y1="42.0104" x2="348.9352" y2="43.7561" gradientTransform="matrix(3.4286 0 0 3.4286 0 430.255)">
		<stop  offset="0" style="stop-color:#FFFFFF"/>
		<stop  offset="1" style="stop-color:#000000"/>
	</linearGradient>
	<path class="st5" d="M1202,579h-11.3v3.7h9.6c0.7,0,1.2-0.5,1.2-1.2l0,0L1202,579z"/>
	<path class="st6" d="M1210.9,545c-3.5,0-6.2-2.8-6.2-6.2s2.8-6.2,6.2-6.2V545z"/>
	<path class="st7" d="M1210.9,532.5c3.5,0,6.2,2.8,6.2,6.2c0,3.5-2.8,6.2-6.2,6.2V532.5z"/>
</g>
<g>
	
		<linearGradient id="SVGID_5_" gradientUnits="userSpaceOnUse" x1="206.8283" y1="36.4722" x2="206.8283" y2="37.5127" gradientTransform="matrix(3.4286 0 0 3.4286 0 430.255)">
		<stop  offset="0" style="stop-color:#FFFFFF"/>
		<stop  offset="1" style="stop-color:#000000"/>
	</linearGradient>
	<path class="st8" d="M728.5,558.1h-38.8c-0.3,0-0.7,0.3-0.7,0.7v1.5h40.2v-1.5C729.2,558.5,729,558.1,728.5,558.1z"/>
	<rect x="689" y="560.3" class="st1" width="40.2" height="18.7"/>
	
		<linearGradient id="SVGID_6_" gradientUnits="userSpaceOnUse" x1="206.8283" y1="42.0104" x2="206.8283" y2="43.7561" gradientTransform="matrix(3.4286 0 0 3.4286 0 430.255)">
		<stop  offset="0" style="stop-color:#FFFFFF"/>
		<stop  offset="1" style="stop-color:#000000"/>
	</linearGradient>
	<path class="st9" d="M689,579v3.7h9.6c0.7,0,1.2-0.5,1.2-1.2l0,0c0-0.5,0.4-0.9,0.9-0.9l0,0c0.3,0,0.8,0.2,1,0.4l1.3,1.3
		c0.3,0.3,0.7,0.4,1,0.4h9.9c0.4,0,0.8-0.2,1-0.4l1.3-1.3c0.3-0.3,0.6-0.4,1-0.4l0,0c0.5,0,0.9,0.4,0.9,0.9l0,0
		c0,0.7,0.5,1.2,1.2,1.2h9.6V579H689z"/>
	<path class="st3" d="M719.1,581.7c0,0,0,0-1.4,0c-1.4,0-4.8-22.1-4.8-30.2c0-8.1,6-6.2,6-10.9c0-4.8-8.4-4.8-8.4-4.8h-2.8
		c0,0-8.4,0-8.4,4.8c0,4.8,6,2.8,6,10.9c0,8.2-3.4,30.2-4.8,30.2c-1.4,0-1.4,0-1.4,0"/>
	
		<linearGradient id="SVGID_7_" gradientUnits="userSpaceOnUse" x1="211.035" y1="42.0104" x2="211.035" y2="43.7561" gradientTransform="matrix(3.4286 0 0 3.4286 0 430.255)">
		<stop  offset="0" style="stop-color:#FFFFFF"/>
		<stop  offset="1" style="stop-color:#000000"/>
	</linearGradient>
	<path class="st10" d="M717.9,580.7c0.3,0.2,0.6,0.4,0.6,0.9l0,0c0,0.7,0.5,1.2,1.2,1.2h9.6V579h-11.4
		C717.9,579,717.7,580.6,717.9,580.7z"/>
	
		<linearGradient id="SVGID_8_" gradientUnits="userSpaceOnUse" x1="202.6231" y1="42.0104" x2="202.6231" y2="43.7561" gradientTransform="matrix(3.4286 0 0 3.4286 0 430.255)">
		<stop  offset="0" style="stop-color:#FFFFFF"/>
		<stop  offset="1" style="stop-color:#000000"/>
	</linearGradient>
	<path class="st11" d="M700.4,579H689v3.7h9.6c0.7,0,1.2-0.5,1.2-1.2l0,0L700.4,579z"/>
	<path class="st6" d="M709.1,545c-3.5,0-6.2-2.8-6.2-6.2s2.8-6.2,6.2-6.2V545z"/>
	<path class="st7" d="M709.1,532.5c3.5,0,6.2,2.8,6.2,6.2c0,3.5-2.8,6.2-6.2,6.2V532.5z"/>
</g>
</svg>
